# Blender 3.4.1
# www.blender.org
mtllib Divider.mtl
o DividerWall
v -0.005386 -0.002678 1.000000
v -0.024992 -0.002678 0.980394
v -0.015189 -0.002678 0.997373
v -0.022366 -0.002678 0.990197
v -0.005386 1.622977 1.000000
v -0.024992 1.603370 0.980394
v -0.015189 1.620350 0.997373
v -0.022366 1.613173 0.990197
v -0.024992 -0.002678 -0.980394
v -0.005386 -0.002678 -1.000000
v -0.022365 -0.002678 -0.990197
v -0.015189 -0.002678 -0.997373
v -0.005386 1.622977 -1.000000
v -0.024992 1.603370 -0.980394
v -0.015189 1.620350 -0.997373
v -0.022365 1.613173 -0.990197
v 0.024992 -0.002678 0.980394
v 0.005386 -0.002678 1.000000
v 0.022365 -0.002678 0.990197
v 0.015189 -0.002678 0.997373
v 0.005386 1.622977 1.000000
v 0.024992 1.603370 0.980394
v 0.015189 1.620350 0.997373
v 0.022365 1.613173 0.990197
v 0.005386 -0.002678 -1.000000
v 0.024992 -0.002678 -0.980394
v 0.015189 -0.002678 -0.997373
v 0.022366 -0.002678 -0.990197
v 0.024992 1.603370 -0.980394
v 0.005386 1.622977 -1.000000
v 0.022366 1.613173 -0.990197
v 0.015189 1.620350 -0.997373
v -0.044841 -0.016295 -0.522310
v -0.044841 0.045669 -0.522310
v -0.044841 -0.016295 -0.733436
v -0.044841 0.045669 -0.733436
v 0.044841 -0.016295 -0.522310
v 0.044841 0.045669 -0.522310
v 0.044841 -0.016295 -0.733436
v 0.044841 0.045669 -0.733436
v -0.026145 0.045669 -0.733436
v 0.026145 0.045669 -0.733436
v 0.026145 0.045669 -0.522310
v -0.026145 0.045669 -0.522310
v -0.026145 -0.004505 -0.733436
v 0.026145 -0.004505 -0.733436
v 0.026145 -0.004505 -0.522310
v -0.026145 -0.004505 -0.522310
v -0.040841 -0.016295 -0.522310
v -0.040841 0.041669 -0.522310
v -0.040841 -0.016295 -0.733436
v -0.040841 0.041669 -0.733436
v 0.040841 -0.016295 -0.522310
v 0.040841 0.041669 -0.522310
v 0.040841 -0.016295 -0.733436
v 0.040841 0.041669 -0.733436
v -0.030145 0.041669 -0.733436
v 0.030145 0.041669 -0.733436
v 0.030145 0.041669 -0.522310
v -0.030145 0.041669 -0.522310
v -0.030145 -0.008505 -0.733436
v 0.030145 -0.008505 -0.733436
v 0.030145 -0.008505 -0.522310
v -0.030145 -0.008505 -0.522310
v -0.044841 -0.016295 0.522310
v -0.044841 0.045669 0.522310
v -0.044841 -0.016295 0.733436
v -0.044841 0.045669 0.733436
v 0.044841 -0.016295 0.522310
v 0.044841 0.045669 0.522310
v 0.044841 -0.016295 0.733436
v 0.044841 0.045669 0.733436
v -0.026145 0.045669 0.733436
v 0.026145 0.045669 0.733436
v 0.026145 0.045669 0.522310
v -0.026145 0.045669 0.522310
v -0.026145 -0.004505 0.733436
v 0.026145 -0.004505 0.733436
v 0.026145 -0.004505 0.522310
v -0.026145 -0.004505 0.522310
v -0.040841 -0.016295 0.522310
v -0.040841 0.041669 0.522310
v -0.040841 -0.016295 0.733436
v -0.040841 0.041669 0.733436
v 0.040841 -0.016295 0.522310
v 0.040841 0.041669 0.522310
v 0.040841 -0.016295 0.733436
v 0.040841 0.041669 0.733436
v -0.030145 0.041669 0.733436
v 0.030145 0.041669 0.733436
v 0.030145 0.041669 0.522310
v -0.030145 0.041669 0.522310
v -0.030145 -0.008505 0.733436
v 0.030145 -0.008505 0.733436
v 0.030145 -0.008505 0.522310
v -0.030145 -0.008505 0.522310
vn 0.1305 -0.0000 0.9914
vn 0.1191 -0.0000 0.9929
vn -0.1191 -0.0000 0.9929
vn -0.1305 -0.0000 0.9914
vn 0.9914 -0.0000 -0.1305
vn 0.9903 0.0984 -0.0984
vn 0.9903 0.0984 0.0984
vn 0.9914 -0.0000 0.1305
vn 0.1191 0.9929 -0.0000
vn -0.1191 0.9929 -0.0000
vn -0.1305 -0.0000 -0.9914
vn -0.1191 -0.0000 -0.9929
vn 0.1191 -0.0000 -0.9929
vn 0.1305 -0.0000 -0.9914
vn -0.4260 -0.0000 0.9047
vn -0.5000 -0.0000 0.8660
vn -0.8687 0.0583 0.4919
vn -0.8660 -0.0000 0.5000
vn -0.9903 0.0984 0.0984
vn -0.9914 -0.0000 0.1305
vn -0.2588 0.9659 -0.0000
vn -0.7071 0.7071 -0.0000
vn -0.8687 0.0583 -0.4919
vn -0.9903 0.0984 -0.0984
vn -0.5000 -0.0000 -0.8660
vn -0.4260 -0.0000 -0.9047
vn -0.8660 -0.0000 -0.5000
vn -0.9914 -0.0000 -0.1305
vn 0.8660 -0.0000 -0.5000
vn 0.8687 0.0583 -0.4919
vn 0.5000 -0.0000 -0.8660
vn 0.4260 -0.0000 -0.9047
vn 0.2588 0.9659 -0.0000
vn 0.7071 0.7071 -0.0000
vn 0.8687 0.0583 0.4919
vn 0.5000 -0.0000 0.8660
vn 0.4260 -0.0000 0.9047
vn 0.8660 -0.0000 0.5000
vn -1.0000 -0.0000 -0.0000
vn 1.0000 -0.0000 -0.0000
vn -0.0000 1.0000 -0.0000
vn -0.0000 -1.0000 -0.0000
vn -0.0000 -0.0000 1.0000
vn -0.0000 -0.0000 -1.0000
vt 0.923743 0.690031
vt 0.925536 0.690048
vt 0.915179 0.549715
vt 0.924343 0.690032
vt 0.924940 0.690037
vt 0.924238 0.596648
vt 0.927228 0.595853
vt 0.690048 0.549714
vt 0.925228 0.596536
vt 0.926223 0.596245
vt 0.929468 0.000025
vt 0.915179 0.274857
vt 0.923396 0.000000
vt 0.927442 0.000025
vt 0.925418 0.000015
vt 0.924376 0.321170
vt 0.929468 0.320595
vt 0.690048 0.274857
vt 0.926063 0.321091
vt 0.927758 0.320880
vt 0.915179 0.000000
vt 0.921314 0.690035
vt 0.923107 0.690029
vt 0.921909 0.690028
vt 0.922507 0.690027
vt 0.923188 0.596636
vt 0.690048 0.000000
vt 0.920192 0.595840
vt 0.922197 0.596524
vt 0.921200 0.596233
vt 0.921250 0.000031
vt 0.915179 0.274857
vt 0.915179 0.000099
vt 0.919228 0.000060
vt 0.917204 0.000085
vt 0.690048 0.274857
vt 0.917483 0.320624
vt 0.922586 0.321175
vt 0.919198 0.320901
vt 0.920897 0.321104
vt 0.345024 0.000000
vt 0.690048 0.842831
vt 0.345024 0.101262
vt 0.791310 0.842831
vt 0.000000 0.000000
vt 0.791310 0.696273
vt 0.000000 0.101262
vt 0.892573 0.696273
vt 0.345024 0.513074
vt 0.690048 0.696273
vt 0.345024 0.411812
vt 0.791310 0.696273
vt 0.000000 0.513074
vt 0.791310 0.842831
vt 0.000000 0.411811
vt 0.892573 0.842831
vt 0.000000 0.131814
vt 0.892572 0.726825
vt 0.000000 0.381259
vt 0.892573 0.812279
vt 0.345024 0.381259
vt 0.791310 0.726825
vt 0.345024 0.131815
vt 0.791310 0.812279
vt 0.000000 0.213810
vt 0.810577 0.726825
vt 0.000000 0.299264
vt 0.810577 0.812279
vt 0.345024 0.299264
vt 0.709315 0.726825
vt 0.345024 0.213810
vt 0.709315 0.812279
vt 0.345024 1.000000
vt 0.690048 0.836295
vt 0.345024 0.905275
vt 0.784774 0.836295
vt 0.000000 1.000000
vt 0.791310 0.702810
vt 0.000000 0.905275
vt 0.886036 0.702810
vt 0.345024 0.513074
vt 0.690048 0.702810
vt 0.345024 0.607799
vt 0.784774 0.702810
vt 0.000000 0.513074
vt 0.791310 0.836295
vt 0.000000 0.607799
vt 0.886036 0.836294
vt 0.000000 0.887796
vt 0.886036 0.720289
vt 0.000000 0.625278
vt 0.886036 0.818816
vt 0.345024 0.625278
vt 0.784774 0.720289
vt 0.345024 0.887796
vt 0.784774 0.818816
vt 0.000000 0.805800
vt 0.804040 0.720289
vt 0.000000 0.707273
vt 0.804040 0.818816
vt 0.345024 0.707273
vt 0.702778 0.720289
vt 0.345024 0.805801
vt 0.702778 0.818816
vt 0.690048 0.000000
vt 0.690048 0.696273
vt 0.690048 0.101262
vt 0.791310 0.696273
vt 0.345024 0.000000
vt 0.791310 0.549715
vt 0.345024 0.101262
vt 0.892573 0.549715
vt 0.690048 0.513074
vt 0.690048 0.549715
vt 0.690048 0.411812
vt 0.791310 0.549715
vt 0.345024 0.513074
vt 0.791310 0.696273
vt 0.345024 0.411811
vt 0.892573 0.696273
vt 0.345024 0.131814
vt 0.892572 0.580267
vt 0.345024 0.381259
vt 0.892573 0.665721
vt 0.690048 0.381259
vt 0.791310 0.580267
vt 0.690048 0.131815
vt 0.791310 0.665721
vt 0.345024 0.213810
vt 0.810577 0.580267
vt 0.345024 0.299264
vt 0.810577 0.665721
vt 0.690048 0.299264
vt 0.709315 0.580267
vt 0.690048 0.213810
vt 0.709315 0.665721
vt 0.690048 1.000000
vt 0.690048 0.689736
vt 0.690048 0.905275
vt 0.784774 0.689736
vt 0.345024 1.000000
vt 0.791310 0.556251
vt 0.345024 0.905275
vt 0.886036 0.556251
vt 0.690048 0.513074
vt 0.690048 0.556251
vt 0.690048 0.607799
vt 0.784774 0.556251
vt 0.345024 0.513074
vt 0.791310 0.689736
vt 0.345024 0.607799
vt 0.886036 0.689736
vt 0.345024 0.887796
vt 0.886036 0.573730
vt 0.345024 0.625278
vt 0.886036 0.672257
vt 0.690048 0.625278
vt 0.784774 0.573730
vt 0.690048 0.887796
vt 0.784774 0.672257
vt 0.345024 0.805800
vt 0.804040 0.573730
vt 0.345024 0.707273
vt 0.804040 0.672257
vt 0.690048 0.707273
vt 0.702778 0.573730
vt 0.690048 0.805801
vt 0.702778 0.672257
s 1
usemtl M_DividerWall
f 18/23/1 21/26/2 5/6/3 1/1/4
f 26/32/5 29/36/6 22/27/7 17/21/8
f 30/38/9 13/16/10 5/6/10 21/26/9
f 10/13/11 13/16/12 30/38/13 25/31/14
f 1/1/4 5/6/3 7/9/15 3/4/16
f 3/4/16 7/9/15 8/10/17 4/5/18
f 4/5/18 8/10/17 6/7/19 2/2/20
f 5/6/10 13/16/10 15/19/21 7/9/21
f 7/9/22 15/19/22 16/20/22 8/10/22
f 8/10/17 16/20/23 14/17/24 6/7/19
f 13/16/12 10/13/11 12/15/25 15/19/26
f 15/19/26 12/15/25 11/14/27 16/20/23
f 16/20/23 11/14/27 9/11/28 14/17/24
f 29/37/6 26/33/5 28/35/29 31/39/30
f 31/39/30 28/35/29 27/34/31 32/40/32
f 32/40/32 27/34/31 25/31/14 30/38/13
f 30/38/9 21/26/9 23/29/33 32/40/33
f 32/40/34 23/29/34 24/30/34 31/39/34
f 31/39/30 24/30/35 22/28/7 29/37/6
f 21/26/2 18/23/1 20/25/36 23/29/37
f 23/29/37 20/25/36 19/24/38 24/30/35
f 24/30/35 19/24/38 17/22/8 22/28/7
f 2/3/20 6/8/19 14/18/24 9/12/28
f 33/41/39 34/43/39 36/47/39 35/45/39
f 39/53/40 40/55/40 38/51/40 37/49/40
f 43/61/39 42/59/39 46/67/39 47/69/39
f 40/55/41 42/59/41 43/61/41 38/51/41
f 41/57/41 36/47/41 34/43/41 44/63/41
f 46/67/41 45/65/41 48/71/41 47/69/41
f 41/57/40 44/63/40 48/71/40 45/65/40
f 49/73/40 51/77/40 52/79/40 50/75/40
f 55/85/39 53/81/39 54/83/39 56/87/39
f 59/93/40 63/101/40 62/99/40 58/91/40
f 56/87/42 54/83/42 59/93/42 58/91/42
f 57/89/42 60/95/42 50/75/42 52/79/42
f 62/99/42 63/101/42 64/103/42 61/97/42
f 57/89/39 61/97/39 64/103/39 60/95/39
f 34/44/43 33/42/43 49/74/43 50/76/43
f 35/46/44 36/48/44 52/80/44 51/78/44
f 42/60/44 40/56/44 56/88/44 58/92/44
f 40/56/44 39/54/44 55/86/44 56/88/44
f 37/50/43 38/52/43 54/84/43 53/82/43
f 36/48/44 41/58/44 57/90/44 52/80/44
f 44/64/43 34/44/43 50/76/43 60/96/43
f 38/52/43 43/62/43 59/94/43 54/84/43
f 45/66/44 46/68/44 62/100/44 61/98/44
f 47/70/43 48/72/43 64/104/43 63/102/43
f 46/68/44 42/60/44 58/92/44 62/100/44
f 43/62/43 47/70/43 63/102/43 59/94/43
f 41/58/44 45/66/44 61/98/44 57/90/44
f 48/72/43 44/64/43 60/96/43 64/104/43
f 65/105/39 67/109/39 68/111/39 66/107/39
f 71/117/40 69/113/40 70/115/40 72/119/40
f 75/125/39 79/133/39 78/131/39 74/123/39
f 72/119/41 70/115/41 75/125/41 74/123/41
f 73/121/41 76/127/41 66/107/41 68/111/41
f 78/131/41 79/133/41 80/135/41 77/129/41
f 73/121/40 77/129/40 80/135/40 76/127/40
f 81/137/40 82/139/40 84/143/40 83/141/40
f 87/149/39 88/151/39 86/147/39 85/145/39
f 91/157/40 90/155/40 94/163/40 95/165/40
f 88/151/42 90/155/42 91/157/42 86/147/42
f 89/153/42 84/143/42 82/139/42 92/159/42
f 94/163/42 93/161/42 96/167/42 95/165/42
f 89/153/39 92/159/39 96/167/39 93/161/39
f 66/108/44 82/140/44 81/138/44 65/106/44
f 67/110/43 83/142/43 84/144/43 68/112/43
f 74/124/43 90/156/43 88/152/43 72/120/43
f 72/120/43 88/152/43 87/150/43 71/118/43
f 69/114/44 85/146/44 86/148/44 70/116/44
f 68/112/43 84/144/43 89/154/43 73/122/43
f 76/128/44 92/160/44 82/140/44 66/108/44
f 70/116/44 86/148/44 91/158/44 75/126/44
f 77/130/43 93/162/43 94/164/43 78/132/43
f 79/134/44 95/166/44 96/168/44 80/136/44
f 78/132/43 94/164/43 90/156/43 74/124/43
f 75/126/44 91/158/44 95/166/44 79/134/44
f 73/122/43 89/154/43 93/162/43 77/130/43
f 80/136/44 96/168/44 92/160/44 76/128/44
