# Blender v2.79 (sub 0) OBJ File: 'house1 2023.blend'
# www.blender.org
mtllib house1 2023.mtl
o Cube.016_Cube.017
v -5.485623 0.292677 -3.967675
v -5.485623 5.875153 -3.967675
v -5.485623 0.292677 -4.275062
v -5.485623 5.875153 -4.275062
v -5.178237 0.292677 -3.967675
v -5.178237 5.875153 -3.967675
v -5.178237 0.292677 -4.275062
v -5.178237 5.875153 -4.275062
vt 0.050503 0.939459
vt 0.050503 0.126628
vt 0.085927 0.126628
vt 0.085927 0.939459
vt 0.050503 0.939459
vt 0.050503 0.126628
vt 0.085927 0.126628
vt 0.085927 0.939459
vt 0.050503 0.939459
vt 0.050503 0.126628
vt 0.085927 0.126628
vt 0.085927 0.939459
vt 0.050503 0.939459
vt 0.050503 0.126628
vt 0.085927 0.126628
vt 0.085927 0.939459
vt 0.050503 0.126628
vt 0.085927 0.126628
vt 0.050503 0.939459
vt 0.085927 0.939459
vn -1.0000 0.0000 0.0000
vn 0.0000 0.0000 -1.0000
vn 1.0000 0.0000 0.0000
vn 0.0000 0.0000 1.0000
vn 0.0000 -1.0000 0.0000
vn 0.0000 1.0000 0.0000
usemtl Material
s off
f 1/1/1 2/2/1 4/3/1 3/4/1
f 3/5/2 4/6/2 8/7/2 7/8/2
f 7/9/3 8/10/3 6/11/3 5/12/3
f 5/13/4 6/14/4 2/15/4 1/16/4
f 3/5/5 7/17/5 5/18/5 1/16/5
f 8/19/6 4/6/6 2/15/6 6/20/6
o Cube.015_Cube.016
v 5.220276 0.292677 -3.967675
v 5.220276 5.875153 -3.967675
v 5.220276 0.292677 -4.275062
v 5.220276 5.875153 -4.275062
v 5.527662 0.292677 -3.967675
v 5.527662 5.875153 -3.967675
v 5.527662 0.292677 -4.275062
v 5.527662 5.875153 -4.275062
vt 0.050503 0.939459
vt 0.050503 0.126628
vt 0.085927 0.126628
vt 0.085927 0.939459
vt 0.050503 0.939459
vt 0.050503 0.126628
vt 0.085927 0.126628
vt 0.085927 0.939459
vt 0.050503 0.939459
vt 0.050503 0.126628
vt 0.085927 0.126628
vt 0.085927 0.939459
vt 0.050503 0.939459
vt 0.050503 0.126628
vt 0.085927 0.126628
vt 0.085927 0.939459
vt 0.050503 0.126628
vt 0.085927 0.126628
vt 0.050503 0.939459
vt 0.085927 0.939459
vn -1.0000 0.0000 0.0000
vn 0.0000 0.0000 -1.0000
vn 1.0000 0.0000 0.0000
vn 0.0000 0.0000 1.0000
vn 0.0000 -1.0000 0.0000
vn 0.0000 1.0000 0.0000
usemtl Material
s off
f 9/21/7 10/22/7 12/23/7 11/24/7
f 11/25/8 12/26/8 16/27/8 15/28/8
f 15/29/9 16/30/9 14/31/9 13/32/9
f 13/33/10 14/34/10 10/35/10 9/36/10
f 11/25/11 15/37/11 13/38/11 9/36/11
f 16/39/12 12/26/12 10/35/12 14/40/12
o Cube.014_Cube.015
v -5.789527 8.207354 -3.855033
v -5.789521 7.865218 -4.531188
v 5.789527 7.865219 -4.531195
v 5.789524 8.207354 -3.855041
v -5.789527 8.134291 -3.821213
v -5.789521 7.792457 -4.494508
v 5.789527 7.792458 -4.494515
v 5.789524 8.134291 -3.821221
vt 0.546580 0.967747
vt 0.095726 0.967747
vt 0.095726 0.851608
vt 0.546580 0.851608
vt 0.096352 0.922522
vt 0.096352 0.816502
vt 0.545001 0.816502
vt 0.545001 0.922522
vt 0.000000 0.394843
vt 1.000000 0.394843
vt 1.000000 0.994843
vt 0.000000 0.994843
vt 0.000000 0.394843
vt 1.000000 0.394843
vt 1.000000 0.994843
vt 0.000000 0.994843
vt 0.000000 0.394843
vt 1.000000 0.394843
vt 1.000000 0.994843
vt 0.000000 0.994843
vt 0.000000 0.394843
vt 1.000000 0.394843
vt 1.000000 0.994843
vt 0.000000 0.994843
vn -0.0000 0.8923 -0.4515
vn 0.0000 -0.8917 0.4527
vn -1.0000 -0.0000 -0.0000
vn 0.0000 0.4201 0.9075
vn -0.0000 -0.4502 -0.8930
vn 1.0000 0.0000 0.0000
usemtl Material_rooftextures-metal2.jpg.001
s off
f 17/41/13 20/42/13 19/43/13 18/44/13
f 21/45/14 22/46/14 23/47/14 24/48/14
f 17/49/15 18/50/15 22/51/15 21/52/15
f 20/53/16 17/54/16 21/55/16 24/56/16
f 18/57/17 19/58/17 23/59/17 22/60/17
f 19/61/18 20/62/18 24/63/18 23/64/18
o Cube.013_Cube.014
v 5.789952 8.000000 -4.233402
v 5.789952 6.000000 -4.233402
v -5.787297 6.000000 -4.233405
v -5.787297 8.000000 -4.233405
vt 0.702293 0.720749
vt 0.702293 0.966835
vt 0.082206 0.966835
vt 0.082206 0.720749
vn 0.0000 0.0000 -1.0000
usemtl Material
s off
f 27/65/19 28/66/19 25/67/19 26/68/19
o Cube.012_Cube.013
v 5.474842 6.000000 -3.999998
v -5.474839 6.000000 -4.000000
v 5.474842 8.000000 -3.999998
v -5.474839 8.000000 -4.000000
v 5.789952 8.000000 -3.999998
v 5.789952 6.000000 -3.999998
v -5.474839 6.000000 -4.000000
v -5.474839 8.000000 -4.000000
v -5.787297 6.000000 -4.000000
v -5.787297 8.000000 -4.000000
vt 0.055114 0.975015
vt 0.055114 0.811926
vt 0.583417 0.811926
vt 0.583417 0.975015
vn -0.0000 0.0000 1.0000
usemtl Material
s off
f 38/69/20 37/70/20 34/71/20 33/72/20
l 29 30
l 31 32
l 34 29
l 31 33
l 35 37
l 36 38
o Cube.011_Cube.012
v 5.474840 0.000000 4.000000
v -5.474840 0.000000 3.999999
v 5.474836 4.000000 4.000002
v -5.474842 4.000000 3.999999
vt 0.266442 0.102534
vt 0.266442 0.897466
vt 0.076360 0.897466
vt 0.076360 0.102534
vn -0.0000 -0.0000 1.0000
usemtl Material_TexturesCom_BuildingsWildWest0015_20_S.jpg.001
s off
f 39/73/21 41/74/21 42/75/21 40/76/21
o Cube.010_Cube.011
v -5.474840 0.000000 3.999999
v -5.474838 0.000000 -4.000001
v -5.474842 4.000000 3.999999
v -5.474839 6.000000 -4.000000
v -5.474838 0.000000 -4.233406
v -5.474839 6.000000 -4.233405
vt 0.802000 0.008251
vt 0.802000 0.663916
vt 0.100348 0.991749
vt 0.100348 0.008251
vt 0.089580 0.991749
vt 0.089581 0.008251
vn -1.0000 -0.0000 -0.0000
usemtl Material_TexturesCom_BuildingsWildWest0015_20_S.jpg.001
s off
f 43/77/22 45/78/22 46/79/22 44/80/22
f 44/80/22 46/79/22 48/81/22 47/82/22
o Cube.009_Cube.010
v 5.474840 0.000000 -4.000000
v 5.474840 0.000000 4.000000
v 5.474842 6.000000 -3.999998
v 5.474836 4.000000 4.000002
v 5.474840 0.000000 -4.233404
v 5.474842 6.000000 -4.233402
vt 0.838664 0.999949
vt 0.838663 0.000051
vt 0.846051 0.000051
vt 0.846051 0.999949
vt 0.806489 0.000051
vt 0.806490 0.999949
vt 0.485826 0.666651
vt 0.485825 0.000053
vn 1.0000 -0.0000 0.0000
usemtl Material_TexturesCom_BuildingsWildWest0015_20_S.jpg
s off
f 51/83/23 49/84/23 53/85/23 54/86/23
usemtl Material_TexturesCom_BuildingsWildWest0015_20_S.jpg.001
f 49/87/23 51/88/23 52/89/23 50/90/23
o Cube.008_Cube.009
v 5.474840 0.000000 -4.233404
v -5.474838 0.000000 -4.233406
v 5.474842 6.000000 -4.233402
v -5.474839 6.000000 -4.233405
vt 0.075223 0.718691
vt 0.075223 0.010339
vt 0.691249 0.010339
vt 0.691249 0.718691
vn 0.0000 0.0000 -1.0000
usemtl Material_TexturesCom_BuildingsWildWest0015_20_S.jpg.001
s off
f 57/91/24 55/92/24 56/93/24 58/94/24
o Cube.007_Cube.008
v -4.535383 5.880518 -2.737600
v -5.125562 7.345317 -3.964814
v -4.489520 5.766689 -2.895522
v -5.079700 7.231488 -4.122736
v -4.442628 5.917890 -2.737600
v -5.032808 7.382689 -3.964814
v -4.396765 5.804060 -2.895522
v -4.986945 7.268859 -4.122736
vt 0.152276 0.865896
vt 0.508151 0.865896
vt 0.508151 0.947748
vt 0.152276 0.947748
vt 0.152276 0.865896
vt 0.508151 0.865896
vt 0.508151 0.947748
vt 0.152276 0.947748
vt 0.152276 0.865896
vt 0.508151 0.865896
vt 0.508151 0.947748
vt 0.152276 0.947748
vt 0.152276 0.865896
vt 0.508151 0.865896
vt 0.508151 0.947748
vt 0.152276 0.947748
vt 0.508151 0.865896
vt 0.508151 0.947748
vt 0.152276 0.865896
vt 0.152276 0.947748
vn -0.9275 -0.3737 0.0000
vn 0.2293 -0.5691 -0.7896
vn 0.9275 0.3737 0.0000
vn -0.2293 0.5691 0.7896
vn 0.2951 -0.7324 0.6136
vn -0.2951 0.7324 -0.6136
usemtl Material_TexturesCom_WoodPlanksBare0347_1_seamless_S.jpg.001
s off
f 59/95/25 60/96/25 62/97/25 61/98/25
f 61/99/26 62/100/26 66/101/26 65/102/26
f 65/103/27 66/104/27 64/105/27 63/106/27
f 63/107/28 64/108/28 60/109/28 59/110/28
f 61/99/29 65/111/29 63/112/29 59/110/29
f 66/113/30 62/100/30 60/109/30 64/114/30
o Cube.006_Cube.007
v 0.811232 5.938736 -2.729628
v 0.026222 7.309183 -3.956672
v 0.819352 5.808037 -2.880796
v 0.034341 7.178483 -4.107840
v 0.903118 5.970894 -2.752496
v 0.118107 7.341341 -3.979540
v 0.911238 5.840195 -2.903664
v 0.126227 7.210642 -4.130708
vt 0.081375 0.874630
vt 0.545094 0.874630
vt 0.545094 0.971547
vt 0.081375 0.971547
vt 0.081375 0.874630
vt 0.545094 0.874630
vt 0.545094 0.971547
vt 0.081375 0.971547
vt 0.081375 0.874630
vt 0.545094 0.874630
vt 0.545094 0.971547
vt 0.081375 0.971547
vt 0.081375 0.874630
vt 0.545094 0.874630
vt 0.545094 0.971547
vt 0.081375 0.971547
vt 0.545094 0.874630
vt 0.545094 0.971547
vt 0.081375 0.874630
vt 0.081375 0.971547
vn -0.9189 -0.3216 0.2287
vn 0.0406 -0.6535 -0.7558
vn 0.9189 0.3216 -0.2287
vn -0.0406 0.6535 0.7558
vn 0.3925 -0.6852 0.6135
vn -0.3925 0.6852 -0.6135
usemtl Material_TexturesCom_WoodPlanksBare0347_1_seamless_S.jpg.001
s off
f 67/115/31 68/116/31 70/117/31 69/118/31
f 69/119/32 70/120/32 74/121/32 73/122/32
f 73/123/33 74/124/33 72/125/33 71/126/33
f 71/127/34 72/128/34 68/129/34 67/130/34
f 69/119/35 73/131/35 71/132/35 67/130/35
f 74/133/36 70/120/36 68/129/36 72/134/36
o Cube.005_Cube.006
v -0.854459 5.960148 -2.745950
v -0.101397 7.349407 -3.971862
v -0.882547 5.837908 -2.901733
v -0.129485 7.227166 -4.127645
v -0.762889 5.922212 -2.732692
v -0.009827 7.311470 -3.958603
v -0.790978 5.799971 -2.888474
v -0.037916 7.189229 -4.114387
vt 0.527911 0.856046
vt 0.098558 0.856046
vt 0.098558 0.944922
vt 0.527911 0.944922
vt 0.527911 0.856046
vt 0.098558 0.856046
vt 0.098558 0.944922
vt 0.527911 0.944922
vt 0.527911 0.856046
vt 0.098558 0.856046
vt 0.098558 0.944922
vt 0.527911 0.944922
vt 0.527911 0.856046
vt 0.098558 0.856046
vt 0.098558 0.944922
vt 0.527911 0.944922
vt 0.098558 0.856046
vt 0.098558 0.944922
vt 0.527911 0.856046
vt 0.527911 0.944922
vn -0.9157 0.3794 -0.1326
vn -0.1404 -0.6112 -0.7789
vn 0.9157 -0.3794 0.1326
vn 0.1404 0.6112 0.7789
vn -0.3765 -0.6946 0.6130
vn 0.3765 0.6946 -0.6130
usemtl Material_TexturesCom_WoodPlanksBare0347_1_seamless_S.jpg.001
s off
f 75/135/37 76/136/37 78/137/37 77/138/37
f 77/139/38 78/140/38 82/141/38 81/142/38
f 81/143/39 82/144/39 80/145/39 79/146/39
f 79/147/40 80/148/40 76/149/40 75/150/40
f 77/139/41 81/151/41 79/152/41 75/150/41
f 82/153/42 78/140/42 76/149/42 80/154/42
o Cube.004_Cube.005
v 4.294239 5.958073 -2.737600
v 5.046095 7.346835 -3.964814
v 4.235812 5.850152 -2.895522
v 4.987668 7.238914 -4.122736
v 4.382178 5.910463 -2.737600
v 5.134034 7.299226 -3.964814
v 4.323751 5.802543 -2.895522
v 5.075608 7.191305 -4.122736
vt 0.097857 0.866593
vt 0.541347 0.866593
vt 0.541347 0.959726
vt 0.097857 0.959726
vt 0.097857 0.866593
vt 0.541347 0.866593
vt 0.541347 0.959726
vt 0.097857 0.959726
vt 0.097857 0.866593
vt 0.541347 0.866593
vt 0.541347 0.959726
vt 0.097857 0.959726
vt 0.097857 0.866593
vt 0.541347 0.866593
vt 0.541347 0.959726
vt 0.097857 0.959726
vt 0.541347 0.866593
vt 0.541347 0.959726
vt 0.097857 0.866593
vt 0.097857 0.959726
vn -0.8794 0.4761 0.0000
vn -0.2921 -0.5396 -0.7896
vn 0.8794 -0.4761 0.0000
vn 0.2921 0.5396 0.7896
vn -0.3759 -0.6944 0.6136
vn 0.3759 0.6944 -0.6136
usemtl Material_TexturesCom_WoodPlanksBare0347_1_seamless_S.jpg.001
s off
f 83/155/43 84/156/43 86/157/43 85/158/43
f 85/159/44 86/160/44 90/161/44 89/162/44
f 89/163/45 90/164/45 88/165/45 87/166/45
f 87/167/46 88/168/46 84/169/46 83/170/46
f 85/159/47 89/171/47 87/172/47 83/170/47
f 90/173/48 86/160/48 84/169/48 88/174/48
o Cube.003_Cube.004
v 5.107504 5.925201 -2.706095
v 5.107504 7.504425 -3.933309
v 5.107504 5.802480 -2.864017
v 5.107504 7.381703 -4.091231
v 5.207504 5.925201 -2.706095
v 5.207504 7.504425 -3.933309
v 5.207504 5.802480 -2.864017
v 5.207504 7.381703 -4.091231
vt 0.099794 0.868273
vt 0.539409 0.868273
vt 0.539409 0.964988
vt 0.099794 0.964988
vt 0.099794 0.868273
vt 0.539409 0.868273
vt 0.539409 0.964988
vt 0.099794 0.964988
vt 0.099794 0.868273
vt 0.539409 0.868273
vt 0.539409 0.964988
vt 0.099794 0.964988
vt 0.099794 0.868273
vt 0.539409 0.868273
vt 0.539409 0.964988
vt 0.099794 0.964988
vt 0.539409 0.868273
vt 0.539409 0.964988
vt 0.099794 0.868273
vt 0.099794 0.964988
vn -1.0000 0.0000 0.0000
vn 0.0000 -0.6136 -0.7896
vn 1.0000 0.0000 0.0000
vn 0.0000 0.6136 0.7896
vn 0.0000 -0.7896 0.6136
vn 0.0000 0.7896 -0.6136
usemtl Material_TexturesCom_WoodPlanksBare0347_1_seamless_S.jpg.001
s off
f 91/175/49 92/176/49 94/177/49 93/178/49
f 93/179/50 94/180/50 98/181/50 97/182/50
f 97/183/51 98/184/51 96/185/51 95/186/51
f 95/187/52 96/188/52 92/189/52 91/190/52
f 93/179/53 97/191/53 95/192/53 91/190/53
f 98/193/54 94/180/54 92/189/54 96/194/54
o Cube.002_Cube.003
v -5.187870 5.925201 -2.706095
v -5.187870 7.504425 -3.933309
v -5.187870 5.802480 -2.864017
v -5.187870 7.381703 -4.091231
v -5.087870 5.925201 -2.706095
v -5.087870 7.504425 -3.933309
v -5.087870 5.802480 -2.864017
v -5.087870 7.381703 -4.091231
vt 0.166789 0.884992
vt 0.446947 0.884992
vt 0.446947 0.948027
vt 0.166789 0.948027
vt 0.166789 0.884992
vt 0.446947 0.884992
vt 0.446947 0.948027
vt 0.166789 0.948027
vt 0.166789 0.884992
vt 0.446947 0.884992
vt 0.446947 0.948027
vt 0.166789 0.948027
vt 0.166789 0.884992
vt 0.446947 0.884992
vt 0.446947 0.948027
vt 0.166789 0.948027
vt 0.446947 0.884992
vt 0.446947 0.948027
vt 0.166789 0.884992
vt 0.166789 0.948027
vn -1.0000 0.0000 0.0000
vn 0.0000 -0.6136 -0.7896
vn 1.0000 0.0000 0.0000
vn 0.0000 0.6136 0.7896
vn 0.0000 -0.7896 0.6136
vn 0.0000 0.7896 -0.6136
usemtl Material_TexturesCom_WoodPlanksBare0347_1_seamless_S.jpg.001
s off
f 99/195/55 100/196/55 102/197/55 101/198/55
f 101/199/56 102/200/56 106/201/56 105/202/56
f 105/203/57 106/204/57 104/205/57 103/206/57
f 103/207/58 104/208/58 100/209/58 99/210/58
f 101/199/59 105/211/59 103/212/59 99/210/59
f 106/213/60 102/200/60 100/209/60 104/214/60
o Cube.001_Cube.002
v 5.474840 0.000000 -4.000000
v 5.474840 0.000000 4.000000
v -5.474840 0.000000 3.999999
v -5.474838 0.000000 -4.000001
v 5.474842 6.000000 -3.999998
v 5.474836 4.000000 4.000002
v -5.474842 4.000000 3.999999
v -5.474839 6.000000 -4.000000
v 5.474842 8.000000 -3.999998
v -5.474839 8.000000 -4.000000
v 5.474840 0.000000 -4.233404
v -5.474838 0.000000 -4.233406
v 5.474842 6.000000 -4.233402
v -5.474839 6.000000 -4.233405
v 5.474842 8.000000 -4.233402
v -5.474839 8.000000 -4.233405
v 5.789952 8.000000 -3.999998
v 5.789952 6.000000 -3.999998
v 5.789952 8.000000 -4.233402
v 5.789952 6.000000 -4.233402
v -5.474839 6.000000 -4.000000
v -5.474839 8.000000 -4.000000
v -5.474839 6.000000 -4.233405
v -5.474839 8.000000 -4.233405
v -5.787297 6.000000 -4.000000
v -5.787297 8.000000 -4.000000
v -5.787297 6.000000 -4.233405
v -5.787297 8.000000 -4.233405
v 5.789954 6.000000 -4.000000
v 5.789954 8.000000 -4.000000
v 5.789954 6.000000 -4.233405
v 5.789954 8.000000 -4.233405
vt 0.769671 0.585370
vt 0.385040 0.585370
vt 0.385040 0.000136
vt 0.769671 0.000136
vt 0.384767 0.654447
vt 0.000136 0.654447
vt 0.000137 0.000136
vt 0.384768 0.000137
vt 0.792209 0.000136
vt 0.994837 0.018650
vt 0.992620 0.015383
vt 0.792209 0.000136
vt 0.780893 0.000136
vt 0.780893 0.585370
vt 0.088817 0.761253
vt 0.544049 0.750584
vt 0.540294 0.774027
vt 0.093639 0.776785
vt 0.781165 0.646155
vt 0.789623 0.632325
vt 0.792887 0.645335
vt 0.790131 0.658848
vt 0.988819 0.632893
vt 0.999864 0.638002
vt 0.992345 0.658848
vt 0.987619 0.646522
vt 0.791120 0.022593
vt 0.795450 0.006324
vt 0.795272 0.015635
vt 0.987520 0.025211
vt 0.988486 0.028606
vt 0.790192 0.023792
vt 0.194940 0.921665
vt 0.388259 0.929851
vt 0.386737 0.935298
vt 0.194835 0.930978
vt 0.987128 0.023389
vt 0.988692 0.017970
vt 0.194940 0.921665
vt 0.388259 0.929851
vt 0.386737 0.935298
vt 0.194835 0.930978
vn 0.0000 -1.0000 0.0000
vn -0.0000 0.9701 0.2425
vn 0.0000 0.0000 1.0000
vn 0.0000 1.0000 0.0000
vn -1.0000 0.0000 0.0000
usemtl Material_TexturesCom_BuildingsWildWest0030_3_S.jpg
s off
f 107/215/61 108/216/61 109/217/61 110/218/61
f 111/219/62 114/220/62 113/221/62 112/222/62
f 114/223/63 116/224/63 128/225/63 127/226/63
f 107/215/61 110/218/61 118/227/61 117/228/61
f 116/229/64 115/230/64 121/231/64 122/232/64
f 111/233/61 119/234/61 126/235/61 124/236/61
f 121/237/64 115/238/64 123/239/64 125/240/64
f 129/241/61 127/226/61 131/242/61 133/243/61
f 116/224/63 122/244/63 130/245/63 128/225/63
f 120/246/63 114/223/63 127/226/63 129/241/63
f 131/247/65 132/248/65 134/249/65 133/250/65
f 128/225/64 130/245/64 134/251/64 132/252/64
f 135/253/65 136/254/65 138/255/65 137/256/65
o Cube
v 5.789527 6.175146 -3.999871
v 5.789521 4.060189 4.459958
v -5.789527 4.060189 4.459953
v -5.789524 6.175146 -3.999873
v 5.789527 5.991699 -4.002342
v 5.789521 3.881308 4.416401
v -5.789527 3.881308 4.416396
v -5.789524 5.991699 -4.002344
vt 0.898061 0.810241
vt 0.839597 0.810241
vt 0.839597 0.775162
vt 0.898061 0.775162
vt 0.839597 0.775162
vt 0.898061 0.775162
vt 0.898061 0.810241
vt 0.839597 0.810241
vt 0.839597 0.775162
vt 0.898061 0.810241
vt 0.839597 0.810241
vt 0.839597 0.775162
vt 0.898061 0.775162
vt 0.898061 0.810241
vt 0.839597 0.775162
vt 0.898061 0.775162
vt 0.839597 0.810241
vt 0.898061 0.775162
vt 0.898061 0.810241
vt 0.839597 0.810241
vn -0.0000 0.9701 0.2425
vn 0.0000 -0.9700 -0.2432
vn 1.0000 0.0000 0.0000
vn 0.0000 0.0135 -0.9999
vn -0.0000 -0.2366 0.9716
vn -1.0000 0.0000 -0.0000
usemtl Material_rooftextures-metal2.jpg.001
s off
f 139/257/66 142/258/66 141/259/66 140/260/66
f 143/261/67 144/262/67 145/263/67 146/264/67
f 139/265/68 140/260/68 144/266/68 143/267/68
f 142/268/69 139/269/69 143/270/69 146/264/69
f 140/271/70 141/272/70 145/263/70 144/273/70
f 141/259/71 142/274/71 146/275/71 145/276/71
